<svg width="93" height="73" viewBox="0 0 93 73" fill="none" xmlns="http://www.w3.org/2000/svg">
<path d="M82.4061 35L92.4766 38.9671L82 41.6237L82.4061 35Z" fill="#E0013F"/>
<path d="M24.5675 38.2869C19.7622 41.0515 0.869598 34.4571 0.869598 34.4571L24.9684 32.662C24.9684 32.662 26.0517 37.433 24.5675 38.2869Z" fill="#FF6A89"/>
<path d="M61.5532 53.646C63.9727 52.3527 67.3914 49.505 69.0974 48.8717C70.6977 49.5508 72.4983 49.86 74.3791 49.6975C80.425 49.175 85.0075 43.9846 84.6138 38.1045C84.2502 32.6679 79.76 28.5457 74.3056 28.368L74.296 28.2279L51.6966 30.1812C48.9003 30.0064 45.5921 30.1492 41.6801 30.6793C38.1652 31.1554 34.5121 31.5876 31.1771 31.9548L25.5568 32.4408L25.5637 32.5459C21.4343 32.962 18.6195 33.2053 18.6195 33.2053C18.6195 33.2053 21.3884 37.4663 26.2392 42.6369L26.2795 43.2395L26.7697 43.197C30.8919 47.5104 36.4126 52.3599 42.9477 55.8667C50.187 59.7512 57.1237 57.6726 61.5532 53.646Z" fill="#FFAAD4"/>
<path d="M76.5498 39.9926C75.2772 40.1027 74.1811 39.2228 74.1009 38.0277C74.0208 36.8327 74.9874 35.7744 76.26 35.6643C77.5325 35.5542 78.6287 36.4341 78.7088 37.6292C78.7889 38.8249 77.8226 39.8828 76.5498 39.9926Z" fill="#E0013F"/>
<path d="M48.9314 62.2143L47.5383 61.6395L50.1604 55.0311L51.5535 55.606L48.9314 62.2143Z" fill="#E0013F"/>
<path d="M48.1952 60.9686L58.6168 64.8915L47.8442 62.1272L48.1952 60.9686Z" fill="#E0013F"/>
<path d="M55.6055 64.2652L59.4817 65.3837L56.1804 63.9496L55.5272 63.4102L55.2689 63.5537L55.2418 63.5421L55.1962 63.5943L50.1506 66.3996L55.6055 64.2652Z" fill="#E0013F"/>
<path d="M45.2526 43.9675C37.5029 42.7876 29.1421 22.7616 29.1421 22.7616C29.1421 22.7616 41.5579 23.8716 49.5215 24.3041C57.3658 24.7301 64.8253 29.6775 61.4511 38.0152C59.0636 43.9151 53.0022 45.1474 45.2526 43.9675Z" fill="#E0013F"/>
<path d="M45.6581 41.6392C37.9698 40.0914 30.5709 19.6981 30.5709 19.6981C30.5709 19.6981 42.9254 21.3989 50.863 22.2109C58.6818 23.0104 65.8997 28.3062 62.1299 36.4699C59.4622 42.2458 53.3464 43.187 45.6581 41.6392Z" fill="#FF6A89"/>
</svg>
