<svg width="66" height="68" viewBox="0 0 66 68" fill="none" xmlns="http://www.w3.org/2000/svg">
<path d="M22.0754 52.7797C22.0754 53.0453 21.7694 53.2578 21.3835 53.2578C20.9444 53.2977 20.6383 53.0852 20.6383 52.7797C20.6383 52.5141 20.9444 52.3016 21.3302 52.3016C21.7294 52.2617 22.0754 52.4742 22.0754 52.7797ZM17.9371 52.182C17.844 52.4477 18.1101 52.7531 18.5093 52.8328C18.8552 52.9656 19.2544 52.8328 19.3343 52.5672C19.4141 52.3016 19.1613 51.9961 18.7621 51.8766C18.4161 51.7836 18.0302 51.9164 17.9371 52.182ZM23.8185 51.9563C23.4327 52.0492 23.1665 52.3016 23.2065 52.607C23.2464 52.8727 23.5923 53.0453 23.9915 52.9523C24.3774 52.8594 24.6435 52.607 24.6036 52.3414C24.5637 52.0891 24.2044 51.9164 23.8185 51.9563ZM32.5742 1.0625C14.1181 1.0625 0 15.0477 0 33.4688C0 48.1977 9.2879 60.8016 22.5544 65.2375C24.2577 65.543 24.8565 64.4938 24.8565 63.6305C24.8565 62.807 24.8165 58.2648 24.8165 55.4758C24.8165 55.4758 15.502 57.468 13.546 51.518C13.546 51.518 12.029 47.6531 9.84677 46.657C9.84677 46.657 6.7996 44.5719 10.0597 44.6117C10.0597 44.6117 13.373 44.8773 15.196 48.0383C18.1101 53.1648 22.9936 51.6906 24.8964 50.8141C25.2024 48.6891 26.0673 47.2148 27.0254 46.3383C19.5871 45.5148 12.0823 44.4391 12.0823 31.6625C12.0823 28.0102 13.0935 26.1773 15.2226 23.8398C14.8766 22.9766 13.7456 19.4172 15.5685 14.8219C18.3496 13.9586 24.75 18.4078 24.75 18.4078C27.4113 17.6641 30.2722 17.2789 33.1065 17.2789C35.9407 17.2789 38.8016 17.6641 41.4629 18.4078C41.4629 18.4078 47.8633 13.9453 50.6444 14.8219C52.4673 19.4305 51.3363 22.9766 50.9903 23.8398C53.1194 26.1906 54.4234 28.0234 54.4234 31.6625C54.4234 44.4789 46.5859 45.5016 39.1476 46.3383C40.3718 47.3875 41.4097 49.3797 41.4097 52.5008C41.4097 56.9766 41.3698 62.5148 41.3698 63.6039C41.3698 64.4672 41.9819 65.5164 43.6718 65.2109C56.9782 60.8016 66 48.1977 66 33.4688C66 15.0477 51.0302 1.0625 32.5742 1.0625ZM12.9339 46.8695C12.7609 47.0023 12.8008 47.3078 13.027 47.5602C13.2399 47.7727 13.546 47.8656 13.719 47.693C13.8919 47.5602 13.852 47.2547 13.6258 47.0023C13.4129 46.7898 13.1069 46.6969 12.9339 46.8695ZM11.4968 45.7937C11.4036 45.9664 11.5367 46.1789 11.8028 46.3117C12.0157 46.4445 12.2819 46.4047 12.375 46.2188C12.4681 46.0461 12.3351 45.8336 12.069 45.7008C11.8028 45.6211 11.5899 45.6609 11.4968 45.7937ZM15.8081 50.5219C15.5952 50.6945 15.675 51.093 15.981 51.3453C16.2871 51.6508 16.673 51.6906 16.846 51.4781C17.019 51.3055 16.9391 50.907 16.673 50.6547C16.3802 50.3492 15.981 50.3094 15.8081 50.5219ZM14.2911 48.5695C14.0782 48.7023 14.0782 49.0477 14.2911 49.3531C14.504 49.6586 14.8633 49.7914 15.0363 49.6586C15.2492 49.4859 15.2492 49.1406 15.0363 48.8352C14.85 48.5297 14.504 48.3969 14.2911 48.5695Z" fill="black"/>
</svg>
