<svg width="66" height="66" viewBox="0 0 66 66" fill="none" xmlns="http://www.w3.org/2000/svg">
<path d="M64.7496 24.5953C65.2523 24.1957 66 24.5695 66 25.2012V51.5625C66 54.9785 63.2285 57.75 59.8125 57.75H6.1875C2.77148 57.75 0 54.9785 0 51.5625V25.2141C0 24.5695 0.734766 24.2086 1.25039 24.6082C4.13789 26.8512 7.96641 29.7 21.1148 39.252C23.8348 41.2371 28.4238 45.4137 33 45.3879C37.602 45.4266 42.2812 41.1598 44.898 39.252C58.0465 29.7 61.8621 26.8383 64.7496 24.5953ZM33 41.25C35.9906 41.3016 40.2961 37.4859 42.4617 35.9133C59.5676 23.4996 60.8695 22.4168 64.8141 19.323C65.5617 18.743 66 17.8406 66 16.8867V14.4375C66 11.0215 63.2285 8.25 59.8125 8.25H6.1875C2.77148 8.25 0 11.0215 0 14.4375V16.8867C0 17.8406 0.438281 18.7301 1.18594 19.323C5.13047 22.4039 6.43242 23.4996 23.5383 35.9133C25.7039 37.4859 30.0094 41.3016 33 41.25Z" fill="black"/>
</svg>
