<svg width="69" height="69" viewBox="0 0 69 69" fill="none" xmlns="http://www.w3.org/2000/svg">
<path d="M34.4999 49.5302C42.7906 49.5302 49.4767 42.7907 49.4767 34.5535C49.4767 26.3163 42.7372 19.5767 34.4999 19.5767C26.2627 19.5767 19.5232 26.3163 19.5232 34.5535C19.5232 42.7907 26.2092 49.5302 34.4999 49.5302ZM34.4999 23.9093C40.3837 23.9093 45.1441 28.6697 45.1441 34.5535C45.1441 40.4372 40.3837 45.1977 34.4999 45.1977C28.6162 45.1977 23.8558 40.4372 23.8558 34.5535C23.8558 28.6697 28.6162 23.9093 34.4999 23.9093Z" fill="black"/>
<path d="M36.6929 12.6232V5.72324C36.6929 4.493 35.7301 3.53021 34.4999 3.53021C33.2697 3.53021 32.3069 4.493 32.3069 5.72324V12.6232C32.3069 13.8535 33.2697 14.8163 34.4999 14.8163C35.7301 14.8163 36.6929 13.8535 36.6929 12.6232Z" fill="black"/>
<path d="M32.3069 56.4837V63.3837C32.3069 64.614 33.2697 65.5767 34.4999 65.5767C35.7301 65.5767 36.6929 64.614 36.6929 63.3837V56.4837C36.6929 55.2535 35.7301 54.2907 34.4999 54.2907C33.2697 54.2907 32.3069 55.2535 32.3069 56.4837Z" fill="black"/>
<path d="M51.5628 20.593L56.4302 15.7256C57.286 14.8698 57.286 13.4791 56.4302 12.6232C55.5744 11.7674 54.1837 11.7674 53.3279 12.6232L48.4605 17.4907C47.6047 18.3465 47.6047 19.7372 48.4605 20.593C48.8884 21.0209 49.4233 21.2349 50.0116 21.2349C50.6 21.2349 51.1349 21.0209 51.5628 20.593Z" fill="black"/>
<path d="M12.5697 56.4837C12.9976 56.9116 13.5325 57.1256 14.1209 57.1256C14.6558 57.1256 15.2441 56.9116 15.672 56.4837L20.5395 51.6163C21.3953 50.7604 21.3953 49.3697 20.5395 48.5139C19.6837 47.6581 18.293 47.6581 17.4372 48.5139L12.5697 53.3814C11.7139 54.2372 11.7139 55.6279 12.5697 56.4837Z" fill="black"/>
<path d="M65.5232 34.5535C65.5232 33.3233 64.5604 32.3605 63.3302 32.3605H56.4302C55.2 32.3605 54.2372 33.3233 54.2372 34.5535C54.2372 35.7837 55.2 36.7465 56.4302 36.7465H63.3302C64.5069 36.7465 65.5232 35.7837 65.5232 34.5535Z" fill="black"/>
<path d="M5.66971 36.7465H12.5697C13.7999 36.7465 14.7627 35.7837 14.7627 34.5535C14.7627 33.3233 13.7999 32.3605 12.5697 32.3605H5.66971C4.43948 32.3605 3.47668 33.3233 3.47668 34.5535C3.47668 35.7837 4.49296 36.7465 5.66971 36.7465Z" fill="black"/>
<path d="M54.8791 57.1256C55.4139 57.1256 56.0023 56.9116 56.4302 56.4837C57.286 55.6279 57.286 54.2372 56.4302 53.3814L51.5628 48.5139C50.707 47.6581 49.3163 47.6581 48.4605 48.5139C47.6047 49.3697 47.6047 50.7604 48.4605 51.6163L53.3279 56.4837C53.7558 56.9116 54.3442 57.1256 54.8791 57.1256Z" fill="black"/>
<path d="M20.5395 20.593C21.3953 19.7372 21.3953 18.3465 20.5395 17.4907L15.672 12.6232C14.8162 11.7674 13.4255 11.7674 12.5697 12.6232C11.7139 13.4791 11.7139 14.8698 12.5697 15.7256L17.4372 20.593C17.8651 21.0209 18.4 21.2349 18.9883 21.2349C19.5767 21.2349 20.1116 21.0209 20.5395 20.593Z" fill="black"/>
</svg>
