<svg width="66" height="70" viewBox="0 0 66 70" fill="none" xmlns="http://www.w3.org/2000/svg">
<path d="M33 1.09375C14.7702 1.09375 0 16.2695 0 35C0 53.7305 14.7702 68.9062 33 68.9062C51.2298 68.9062 66 53.7305 66 35C66 16.2695 51.2298 1.09375 33 1.09375ZM49.2073 24.3223L43.7915 50.5449C43.3923 52.4043 42.3145 52.8555 40.8109 51.9805L32.5609 45.7324L28.5823 49.6699C28.1431 50.1211 27.7706 50.5039 26.919 50.5039L27.5044 41.877L42.7936 27.6855C43.4589 27.084 42.6472 26.7422 41.769 27.3438L22.8738 39.5664L14.7302 36.9551C12.9605 36.3809 12.9206 35.1367 15.1028 34.2617L46.9186 21.6562C48.3956 21.1094 49.6863 22.0254 49.2073 24.3223V24.3223Z" fill="black"/>
</svg>
