<svg width="91" height="104" viewBox="0 0 91 104" fill="none" xmlns="http://www.w3.org/2000/svg" >
<path d="M88.5625 39H63.375C60.6734 39 58.5 36.8266 58.5 34.125V8.9375C58.5 7.59688 59.5969 6.5 60.9375 6.5H69.0625C70.4031 6.5 71.5 7.59688 71.5 8.9375V26H88.5625C89.9031 26 91 27.0969 91 28.4375V36.5625C91 37.9031 89.9031 39 88.5625 39ZM32.5 34.125V8.9375C32.5 7.59688 31.4031 6.5 30.0625 6.5H21.9375C20.5969 6.5 19.5 7.59688 19.5 8.9375V26H2.4375C1.09688 26 0 27.0969 0 28.4375V36.5625C0 37.9031 1.09688 39 2.4375 39H27.625C30.3266 39 32.5 36.8266 32.5 34.125ZM32.5 95.0625V69.875C32.5 67.1734 30.3266 65 27.625 65H2.4375C1.09688 65 0 66.0969 0 67.4375V75.5625C0 76.9031 1.09688 78 2.4375 78H19.5V95.0625C19.5 96.4031 20.5969 97.5 21.9375 97.5H30.0625C31.4031 97.5 32.5 96.4031 32.5 95.0625ZM71.5 95.0625V78H88.5625C89.9031 78 91 76.9031 91 75.5625V67.4375C91 66.0969 89.9031 65 88.5625 65H63.375C60.6734 65 58.5 67.1734 58.5 69.875V95.0625C58.5 96.4031 59.5969 97.5 60.9375 97.5H69.0625C70.4031 97.5 71.5 96.4031 71.5 95.0625Z" fill="black" fill-opacity="0.4"/>
</svg>
